<svg xmlns="http://www.w3.org/2000/svg" width="256" height="256" viewBox="0 0 256 256">
  <!-- PLACEHOLDER: NPC Ina (blue-soda beat) - final art TBD -->
<circle cx="128" cy="70" r="28" fill="#2e86de"/><rect x="98" y="102" width="60" height="66" rx="10" fill="#2e86de"/><rect x="66" y="106" width="28" height="16" rx="8" fill="#2e86de"/><rect x="162" y="106" width="28" height="16" rx="8" fill="#2e86de"/><rect x="102" y="172" width="20" height="50" rx="8" fill="#2e86de"/><rect x="134" y="172" width="20" height="50" rx="8" fill="#2e86de"/><rect x="164" y="96" width="14" height="30" rx="4" fill="#a8d0e6"/><g transform="translate(94,209)"><rect x="-10" y="-10" width="87" height="47" rx="10" fill="#1f2937"/><rect x="0" y="0" width="19" height="3" fill="#ffffff"/><rect x="8" y="4" width="3" height="3" fill="#ffffff"/><rect x="8" y="8" width="3" height="3" fill="#ffffff"/><rect x="8" y="12" width="3" height="3" fill="#ffffff"/><rect x="8" y="16" width="3" height="3" fill="#ffffff"/><rect x="8" y="20" width="3" height="3" fill="#ffffff"/><rect x="0" y="24" width="19" height="3" fill="#ffffff"/><rect x="24" y="0" width="3" height="3" fill="#ffffff"/><rect x="40" y="0" width="3" height="3" fill="#ffffff"/><rect x="24" y="4" width="7" height="3" fill="#ffffff"/><rect x="40" y="4" width="3" height="3" fill="#ffffff"/><rect x="24" y="8" width="3" height="3" fill="#ffffff"/><rect x="32" y="8" width="3" height="3" fill="#ffffff"/><rect x="40" y="8" width="3" height="3" fill="#ffffff"/><rect x="24" y="12" width="3" height="3" fill="#ffffff"/><rect x="36" y="12" width="7" height="3" fill="#ffffff"/><rect x="24" y="16" width="3" height="3" fill="#ffffff"/><rect x="40" y="16" width="3" height="3" fill="#ffffff"/><rect x="24" y="20" width="3" height="3" fill="#ffffff"/><rect x="40" y="20" width="3" height="3" fill="#ffffff"/><rect x="24" y="24" width="3" height="3" fill="#ffffff"/><rect x="40" y="24" width="3" height="3" fill="#ffffff"/><rect x="52" y="0" width="11" height="3" fill="#ffffff"/><rect x="48" y="4" width="3" height="3" fill="#ffffff"/><rect x="64" y="4" width="3" height="3" fill="#ffffff"/><rect x="48" y="8" width="3" height="3" fill="#ffffff"/><rect x="64" y="8" width="3" height="3" fill="#ffffff"/><rect x="48" y="12" width="19" height="3" fill="#ffffff"/><rect x="48" y="16" width="3" height="3" fill="#ffffff"/><rect x="64" y="16" width="3" height="3" fill="#ffffff"/><rect x="48" y="20" width="3" height="3" fill="#ffffff"/><rect x="64" y="20" width="3" height="3" fill="#ffffff"/><rect x="48" y="24" width="3" height="3" fill="#ffffff"/><rect x="64" y="24" width="3" height="3" fill="#ffffff"/></g>
</svg>
