<svg xmlns="http://www.w3.org/2000/svg" width="256" height="256" viewBox="0 0 256 256">
  <!-- PLACEHOLDER: NPC wine shop owner (buy-wine beat) - final art TBD -->
<circle cx="128" cy="68" r="28" fill="#27ae60"/><rect x="96" y="100" width="64" height="70" rx="10" fill="#27ae60"/><rect x="64" y="106" width="28" height="16" rx="8" fill="#27ae60"/><rect x="164" y="106" width="28" height="16" rx="8" fill="#27ae60"/><rect x="98" y="174" width="22" height="50" rx="8" fill="#27ae60"/><rect x="136" y="174" width="22" height="50" rx="8" fill="#27ae60"/><rect x="104" y="110" width="48" height="50" rx="6" fill="#a9dfbf"/><g transform="translate(26,172)"><rect x="-10" y="-10" width="224" height="84" rx="10" fill="#1f2937"/><rect x="0" y="0" width="3" height="3" fill="#ffffff"/><rect x="16" y="0" width="3" height="3" fill="#ffffff"/><rect x="0" y="4" width="3" height="3" fill="#ffffff"/><rect x="16" y="4" width="3" height="3" fill="#ffffff"/><rect x="0" y="8" width="3" height="3" fill="#ffffff"/><rect x="16" y="8" width="3" height="3" fill="#ffffff"/><rect x="0" y="12" width="3" height="3" fill="#ffffff"/><rect x="8" y="12" width="3" height="3" fill="#ffffff"/><rect x="16" y="12" width="3" height="3" fill="#ffffff"/><rect x="0" y="16" width="3" height="3" fill="#ffffff"/><rect x="8" y="16" width="3" height="3" fill="#ffffff"/><rect x="16" y="16" width="3" height="3" fill="#ffffff"/><rect x="0" y="20" width="7" height="3" fill="#ffffff"/><rect x="12" y="20" width="7" height="3" fill="#ffffff"/><rect x="0" y="24" width="3" height="3" fill="#ffffff"/><rect x="16" y="24" width="3" height="3" fill="#ffffff"/><rect x="24" y="0" width="19" height="3" fill="#ffffff"/><rect x="32" y="4" width="3" height="3" fill="#ffffff"/><rect x="32" y="8" width="3" height="3" fill="#ffffff"/><rect x="32" y="12" width="3" height="3" fill="#ffffff"/><rect x="32" y="16" width="3" height="3" fill="#ffffff"/><rect x="32" y="20" width="3" height="3" fill="#ffffff"/><rect x="24" y="24" width="19" height="3" fill="#ffffff"/><rect x="48" y="0" width="3" height="3" fill="#ffffff"/><rect x="64" y="0" width="3" height="3" fill="#ffffff"/><rect x="48" y="4" width="7" height="3" fill="#ffffff"/><rect x="64" y="4" width="3" height="3" fill="#ffffff"/><rect x="48" y="8" width="3" height="3" fill="#ffffff"/><rect x="56" y="8" width="3" height="3" fill="#ffffff"/><rect x="64" y="8" width="3" height="3" fill="#ffffff"/><rect x="48" y="12" width="3" height="3" fill="#ffffff"/><rect x="60" y="12" width="7" height="3" fill="#ffffff"/><rect x="48" y="16" width="3" height="3" fill="#ffffff"/><rect x="64" y="16" width="3" height="3" fill="#ffffff"/><rect x="48" y="20" width="3" height="3" fill="#ffffff"/><rect x="64" y="20" width="3" height="3" fill="#ffffff"/><rect x="48" y="24" width="3" height="3" fill="#ffffff"/><rect x="64" y="24" width="3" height="3" fill="#ffffff"/><rect x="72" y="0" width="19" height="3" fill="#ffffff"/><rect x="72" y="4" width="3" height="3" fill="#ffffff"/><rect x="72" y="8" width="3" height="3" fill="#ffffff"/><rect x="72" y="12" width="15" height="3" fill="#ffffff"/><rect x="72" y="16" width="3" height="3" fill="#ffffff"/><rect x="72" y="20" width="3" height="3" fill="#ffffff"/><rect x="72" y="24" width="19" height="3" fill="#ffffff"/><rect x="117" y="0" width="15" height="3" fill="#ffffff"/><rect x="113" y="4" width="3" height="3" fill="#ffffff"/><rect x="113" y="8" width="3" height="3" fill="#ffffff"/><rect x="117" y="12" width="11" height="3" fill="#ffffff"/><rect x="129" y="16" width="3" height="3" fill="#ffffff"/><rect x="129" y="20" width="3" height="3" fill="#ffffff"/><rect x="113" y="24" width="15" height="3" fill="#ffffff"/><rect x="137" y="0" width="3" height="3" fill="#ffffff"/><rect x="153" y="0" width="3" height="3" fill="#ffffff"/><rect x="137" y="4" width="3" height="3" fill="#ffffff"/><rect x="153" y="4" width="3" height="3" fill="#ffffff"/><rect x="137" y="8" width="3" height="3" fill="#ffffff"/><rect x="153" y="8" width="3" height="3" fill="#ffffff"/><rect x="137" y="12" width="19" height="3" fill="#ffffff"/><rect x="137" y="16" width="3" height="3" fill="#ffffff"/><rect x="153" y="16" width="3" height="3" fill="#ffffff"/><rect x="137" y="20" width="3" height="3" fill="#ffffff"/><rect x="153" y="20" width="3" height="3" fill="#ffffff"/><rect x="137" y="24" width="3" height="3" fill="#ffffff"/><rect x="153" y="24" width="3" height="3" fill="#ffffff"/><rect x="165" y="0" width="11" height="3" fill="#ffffff"/><rect x="161" y="4" width="3" height="3" fill="#ffffff"/><rect x="177" y="4" width="3" height="3" fill="#ffffff"/><rect x="161" y="8" width="3" height="3" fill="#ffffff"/><rect x="177" y="8" width="3" height="3" fill="#ffffff"/><rect x="161" y="12" width="3" height="3" fill="#ffffff"/><rect x="177" y="12" width="3" height="3" fill="#ffffff"/><rect x="161" y="16" width="3" height="3" fill="#ffffff"/><rect x="177" y="16" width="3" height="3" fill="#ffffff"/><rect x="161" y="20" width="3" height="3" fill="#ffffff"/><rect x="177" y="20" width="3" height="3" fill="#ffffff"/><rect x="165" y="24" width="11" height="3" fill="#ffffff"/><rect x="185" y="0" width="19" height="3" fill="#ffffff"/><rect x="185" y="4" width="3" height="3" fill="#ffffff"/><rect x="201" y="4" width="3" height="3" fill="#ffffff"/><rect x="185" y="8" width="3" height="3" fill="#ffffff"/><rect x="201" y="8" width="3" height="3" fill="#ffffff"/><rect x="185" y="12" width="19" height="3" fill="#ffffff"/><rect x="185" y="16" width="3" height="3" fill="#ffffff"/><rect x="185" y="20" width="3" height="3" fill="#ffffff"/><rect x="185" y="24" width="3" height="3" fill="#ffffff"/><rect x="48" y="37" width="11" height="3" fill="#ffffff"/><rect x="44" y="41" width="3" height="3" fill="#ffffff"/><rect x="60" y="41" width="3" height="3" fill="#ffffff"/><rect x="44" y="45" width="3" height="3" fill="#ffffff"/><rect x="60" y="45" width="3" height="3" fill="#ffffff"/><rect x="44" y="49" width="3" height="3" fill="#ffffff"/><rect x="60" y="49" width="3" height="3" fill="#ffffff"/><rect x="44" y="53" width="3" height="3" fill="#ffffff"/><rect x="60" y="53" width="3" height="3" fill="#ffffff"/><rect x="44" y="57" width="3" height="3" fill="#ffffff"/><rect x="60" y="57" width="3" height="3" fill="#ffffff"/><rect x="48" y="61" width="11" height="3" fill="#ffffff"/><rect x="68" y="37" width="3" height="3" fill="#ffffff"/><rect x="84" y="37" width="3" height="3" fill="#ffffff"/><rect x="68" y="41" width="3" height="3" fill="#ffffff"/><rect x="84" y="41" width="3" height="3" fill="#ffffff"/><rect x="68" y="45" width="3" height="3" fill="#ffffff"/><rect x="84" y="45" width="3" height="3" fill="#ffffff"/><rect x="68" y="49" width="3" height="3" fill="#ffffff"/><rect x="76" y="49" width="3" height="3" fill="#ffffff"/><rect x="84" y="49" width="3" height="3" fill="#ffffff"/><rect x="68" y="53" width="3" height="3" fill="#ffffff"/><rect x="76" y="53" width="3" height="3" fill="#ffffff"/><rect x="84" y="53" width="3" height="3" fill="#ffffff"/><rect x="68" y="57" width="7" height="3" fill="#ffffff"/><rect x="80" y="57" width="7" height="3" fill="#ffffff"/><rect x="68" y="61" width="3" height="3" fill="#ffffff"/><rect x="84" y="61" width="3" height="3" fill="#ffffff"/><rect x="92" y="37" width="3" height="3" fill="#ffffff"/><rect x="108" y="37" width="3" height="3" fill="#ffffff"/><rect x="92" y="41" width="7" height="3" fill="#ffffff"/><rect x="108" y="41" width="3" height="3" fill="#ffffff"/><rect x="92" y="45" width="3" height="3" fill="#ffffff"/><rect x="100" y="45" width="3" height="3" fill="#ffffff"/><rect x="108" y="45" width="3" height="3" fill="#ffffff"/><rect x="92" y="49" width="3" height="3" fill="#ffffff"/><rect x="104" y="49" width="7" height="3" fill="#ffffff"/><rect x="92" y="53" width="3" height="3" fill="#ffffff"/><rect x="108" y="53" width="3" height="3" fill="#ffffff"/><rect x="92" y="57" width="3" height="3" fill="#ffffff"/><rect x="108" y="57" width="3" height="3" fill="#ffffff"/><rect x="92" y="61" width="3" height="3" fill="#ffffff"/><rect x="108" y="61" width="3" height="3" fill="#ffffff"/><rect x="116" y="37" width="19" height="3" fill="#ffffff"/><rect x="116" y="41" width="3" height="3" fill="#ffffff"/><rect x="116" y="45" width="3" height="3" fill="#ffffff"/><rect x="116" y="49" width="15" height="3" fill="#ffffff"/><rect x="116" y="53" width="3" height="3" fill="#ffffff"/><rect x="116" y="57" width="3" height="3" fill="#ffffff"/><rect x="116" y="61" width="19" height="3" fill="#ffffff"/><rect x="140" y="37" width="15" height="3" fill="#ffffff"/><rect x="140" y="41" width="3" height="3" fill="#ffffff"/><rect x="156" y="41" width="3" height="3" fill="#ffffff"/><rect x="140" y="45" width="3" height="3" fill="#ffffff"/><rect x="156" y="45" width="3" height="3" fill="#ffffff"/><rect x="140" y="49" width="15" height="3" fill="#ffffff"/><rect x="140" y="53" width="3" height="3" fill="#ffffff"/><rect x="148" y="53" width="3" height="3" fill="#ffffff"/><rect x="140" y="57" width="3" height="3" fill="#ffffff"/><rect x="152" y="57" width="3" height="3" fill="#ffffff"/><rect x="140" y="61" width="3" height="3" fill="#ffffff"/><rect x="156" y="61" width="3" height="3" fill="#ffffff"/></g>
</svg>
